<svg version="1.1" xmlns="http://www.w3.org/2000/svg" xmlns:xlink="http://www.w3.org/1999/xlink" width="500" height="500"><defs><clipPath id="clip-1"><rect x="28.125" y="19.43474" transform="scale(3.2,3.2)" width="100" height="94.443"></rect></clipPath></defs><g data-paper-data="{&quot;description&quot;:&quot;Logo for INTERNSHIP\n===================\n\nThis logo was generated by MarkMaker at http://emblemmatic.org/markmaker/ and may be composed of elements designed by others.\n\nThe font is Aclonica designed by Astigmatic and released under the APACHE2 license via Google Fonts: https://www.google.com/fonts/specimen/Aclonica. The font includes this copyright statement: Copyright (c) 2010 by Brian J. Bonislawsky DBA Astigmatic (AOETI) (astigma@astigmatic.com). All rights reserved. Available under the Apache 2.0 licence. http://www.apache.org/licenses/LICENSE-2.0.html\n\nThe symbol is 'islam' designed by Saman Bemel-Benrud and released into the public domain at the Noun Project: https://thenounproject.com/term/islam/2438.\n\nMarkMaker uses semantic data from the Princeton University WordNet database http://wordnet.princeton.edu and font descriptions from Google Fonts https://www.google.com/fonts.&quot;}" fill="#0f100f" fill-rule="nonzero" stroke="none" stroke-width="1" stroke-linecap="butt" stroke-linejoin="miter" stroke-miterlimit="10" stroke-dasharray="" stroke-dashoffset="0" font-family="none" font-weight="none" font-size="none" text-anchor="none" style="mix-blend-mode: normal"><g data-paper-data="{&quot;elementType&quot;:&quot;logo&quot;}"><g data-paper-data="{&quot;elementType&quot;:&quot;text&quot;}"><g data-paper-data="{&quot;baseline&quot;:72.021484375,&quot;elementType&quot;:&quot;row&quot;}"><g data-paper-data="{&quot;baselineProportion&quot;:0.980718085106383,&quot;fontSize&quot;:100,&quot;baseline&quot;:72.021484375,&quot;elementType&quot;:&quot;word&quot;}"><path d="M61.52683,436.96683h-11.52683v-41.81017h11.52683z" data-paper-data="{&quot;elementType&quot;:&quot;letter&quot;,&quot;baseline&quot;:70.3125,&quot;baselineProportion&quot;:1,&quot;fontSize&quot;:100}"></path><path d="M78.47528,436.96683h-5.34241v-41.81017h7.49099l25.40549,28.71546v-28.71546h5.31338v41.81017h-7.49099l-25.37645,-28.68642z" data-paper-data="{&quot;elementType&quot;:&quot;letter&quot;,&quot;baseline&quot;:70.3125,&quot;baselineProportion&quot;:1,&quot;fontSize&quot;:100}"></path><path d="M142.28597,436.96683h-11.52683v-36.46776h-11.38166v-5.34241h34.29015v5.34241h-11.38166z" data-paper-data="{&quot;elementType&quot;:&quot;letter&quot;,&quot;baseline&quot;:70.3125,&quot;baselineProportion&quot;:1,&quot;fontSize&quot;:100}"></path><path d="M191.7244,436.96683h-30.02203v-41.81017h30.02203v5.34241h-18.49519v12.9205h14.28514v5.31338h-14.28514v12.89147h18.49519z" data-paper-data="{&quot;elementType&quot;:&quot;letter&quot;,&quot;baseline&quot;:70.3125,&quot;baselineProportion&quot;:1,&quot;fontSize&quot;:100}"></path><path d="M212.53449,436.96683h-11.52683v-41.81017h20.55667c1.93566,0 3.80356,0.22744 5.60372,0.68232c1.80016,0.45488 3.39224,1.17107 4.77623,2.14858c1.38399,0.97751 2.48732,2.24052 3.30997,3.78905c0.82265,1.54852 1.23398,3.42611 1.23398,5.63276c0,1.72273 -0.36294,3.34385 -1.08881,4.86334c-0.72587,1.51949 -1.6937,2.87445 -2.90348,4.06488c-1.20979,1.19043 -2.59862,2.17761 -4.1665,2.96155c-1.56788,0.78394 -3.19383,1.30173 -4.87785,1.55336c0.75491,1.27753 1.54369,2.48732 2.36634,3.62936c0.82265,1.14204 1.65499,2.21149 2.497,3.20835c0.84201,0.99686 1.67918,1.9163 2.51151,2.75831c0.83233,0.84201 1.62595,1.61143 2.38086,2.30827c1.7808,1.62595 3.54225,3.0293 5.28434,4.21005h-14.37225c-1.16139,-1.10332 -2.26472,-2.42925 -3.30997,-3.97777c-0.8904,-1.31625 -1.78564,-2.94704 -2.68572,-4.89237c-0.90008,-1.94533 -1.59208,-4.19553 -2.07599,-6.7506h-3.51322v15.62074M224.78719,407.40936c0,-2.8067 -0.68232,-4.86818 -2.04696,-6.18442c-1.36464,-1.31625 -3.41159,-1.97437 -6.14087,-1.97437h-4.06488v18.14678h4.06488c1.45174,0 2.6954,-0.27583 3.73098,-0.82749c1.03558,-0.55166 1.88243,-1.28721 2.54055,-2.20665c0.65812,-0.91944 1.14204,-1.97921 1.45174,-3.17932c0.3097,-1.20011 0.46456,-2.45828 0.46456,-3.77453z" data-paper-data="{&quot;elementType&quot;:&quot;letter&quot;,&quot;baseline&quot;:70.3125,&quot;baselineProportion&quot;:1,&quot;fontSize&quot;:100}"></path><path d="M251.40424,436.96683h-5.34241v-41.81017h7.49099l25.40549,28.71546v-28.71546h5.31338v41.81017h-7.49099l-25.37645,-28.68642z" data-paper-data="{&quot;elementType&quot;:&quot;letter&quot;,&quot;baseline&quot;:70.3125,&quot;baselineProportion&quot;:1,&quot;fontSize&quot;:100}"></path><path d="M330.13883,424.1915c0,1.80016 -0.22744,3.3874 -0.68232,4.76171c-0.45488,1.37432 -1.09365,2.56474 -1.9163,3.57129c-0.82265,1.00654 -1.79532,1.84855 -2.918,2.52603c-1.12268,0.67748 -2.34698,1.21946 -3.67291,1.62595c-1.32592,0.40649 -2.72928,0.69684 -4.21005,0.87105c-1.48078,0.17421 -2.98575,0.26131 -4.51492,0.26131c-2.01308,0 -3.87131,-0.15001 -5.57469,-0.45004c-1.70338,-0.30003 -3.30513,-0.77426 -4.80527,-1.42271c-1.50013,-0.64844 -2.9422,-1.48562 -4.32619,-2.51151c-1.38399,-1.0259 -2.76315,-2.2744 -4.13746,-3.74549l5.92311,-6.01021c0.54198,1.3356 1.28721,2.56958 2.23568,3.70194c0.94847,1.13236 1.98889,2.10503 3.12125,2.918c1.13236,0.81298 2.30827,1.45174 3.52773,1.9163c1.21946,0.46456 2.37118,0.69684 3.45515,0.69684c1.27753,0 2.47764,-0.09194 3.60032,-0.27583c1.12268,-0.18389 2.10019,-0.48875 2.93252,-0.9146c0.83233,-0.42584 1.48562,-0.99202 1.95985,-1.69854c0.47424,-0.70651 0.71135,-1.59208 0.71135,-2.65669c0,-0.81298 -0.18389,-1.50981 -0.55166,-2.09051c-0.36777,-0.5807 -0.84685,-1.07913 -1.43722,-1.49529c-0.59038,-0.41617 -1.26302,-0.76942 -2.01792,-1.05977c-0.75491,-0.29035 -1.52433,-0.53714 -2.30827,-0.74039c-0.78394,-0.20324 -1.55336,-0.38713 -2.30827,-0.55166c-0.75491,-0.16453 -1.42271,-0.3339 -2.0034,-0.50811c-1.14204,-0.32906 -2.33247,-0.68232 -3.57129,-1.05977c-1.23882,-0.37745 -2.45828,-0.80814 -3.65839,-1.29205c-1.20011,-0.48391 -2.3373,-1.04042 -3.41159,-1.6695c-1.07429,-0.62909 -2.01792,-1.37432 -2.8309,-2.23568c-0.81298,-0.86137 -1.46142,-1.85823 -1.94533,-2.99059c-0.48391,-1.13236 -0.72587,-2.43409 -0.72587,-3.90519c0,-1.76145 0.21776,-3.32449 0.65328,-4.68913c0.43552,-1.36464 1.05009,-2.55023 1.84371,-3.55677c0.79362,-1.00654 1.73241,-1.85339 2.81638,-2.54055c1.08397,-0.68716 2.2744,-1.23882 3.57129,-1.65499c1.29689,-0.41617 2.67604,-0.71619 4.13746,-0.90008c1.46142,-0.18389 2.95671,-0.27583 4.48588,-0.27583c2.09051,0 3.99229,0.19357 5.70535,0.5807c1.71306,0.38713 3.29545,0.93879 4.7472,1.65499c1.45174,0.71619 2.78251,1.57272 3.99229,2.56958c1.20979,0.99686 2.34698,2.10503 3.41159,3.32449l-5.92311,6.01021c-0.46456,-1.39367 -1.10816,-2.65185 -1.93082,-3.77453c-0.82265,-1.12268 -1.73725,-2.08567 -2.74379,-2.88897c-1.00654,-0.8033 -2.06147,-1.42271 -3.1648,-1.85823c-1.10332,-0.43552 -2.16793,-0.65328 -3.19383,-0.65328c-1.3356,0 -2.56474,0.09194 -3.68742,0.27583c-1.12268,0.18389 -2.08567,0.48391 -2.88897,0.90008c-0.8033,0.41617 -1.42755,0.97751 -1.87275,1.68402c-0.4452,0.70651 -0.6678,1.5824 -0.6678,2.62765c0,0.83233 0.16453,1.53885 0.49359,2.11954c0.32906,0.5807 0.76942,1.07429 1.32109,1.48078c0.55166,0.40649 1.17591,0.74039 1.87275,1.0017c0.69684,0.26131 1.41787,0.48875 2.1631,0.68232c0.74523,0.19357 1.48078,0.36294 2.20665,0.50811c0.72587,0.14517 1.38883,0.30487 1.98889,0.47907c1.16139,0.32906 2.38086,0.67748 3.65839,1.04525c1.27753,0.36777 2.53571,0.79846 3.77453,1.29205c1.23882,0.49359 2.41957,1.05977 3.54225,1.69854c1.12268,0.63877 2.10987,1.39851 2.96155,2.27924c0.85169,0.88072 1.52917,1.89694 2.03244,3.04866c0.50327,1.15172 0.75491,2.4728 0.75491,3.96326z" data-paper-data="{&quot;elementType&quot;:&quot;letter&quot;,&quot;baseline&quot;:72.021484375,&quot;baselineProportion&quot;:0.980718085106383,&quot;fontSize&quot;:100}"></path><path d="M350.97795,436.96683h-11.52683v-41.81017h11.52683v18.26292h15.27233v-18.26292h11.52683v41.81017h-11.52683v-18.23388h-15.27233z" data-paper-data="{&quot;elementType&quot;:&quot;letter&quot;,&quot;baseline&quot;:70.3125,&quot;baselineProportion&quot;:1,&quot;fontSize&quot;:100}"></path><path d="M400.90998,436.96683h-11.52683v-41.81017h11.52683z" data-paper-data="{&quot;elementType&quot;:&quot;letter&quot;,&quot;baseline&quot;:70.3125,&quot;baselineProportion&quot;:1,&quot;fontSize&quot;:100}"></path><path d="M424.04285,436.96683h-11.52683v-41.81017h22.58911c1.95501,0 3.82776,0.26131 5.61824,0.78394c1.79048,0.52263 3.37288,1.31141 4.7472,2.36634c1.37432,1.05493 2.4728,2.38086 3.29545,3.97777c0.82265,1.59692 1.23398,3.46966 1.23398,5.61824c0,1.35496 -0.19357,2.62765 -0.5807,3.81808c-0.38713,1.19043 -0.92428,2.27924 -1.61143,3.26642c-0.68716,0.98718 -1.49529,1.87759 -2.42441,2.67121c-0.92911,0.79362 -1.94533,1.46142 -3.04866,2.0034c-1.10332,0.54198 -2.26956,0.95815 -3.4987,1.2485c-1.22914,0.29035 -2.4728,0.43552 -3.73098,0.43552h-11.06227v15.62074M438.32799,407.90295c0,-2.69056 -0.68232,-4.80527 -2.04696,-6.34411c-1.36464,-1.53885 -3.42127,-2.30827 -6.1699,-2.30827h-6.06828v18.14678h6.06828c1.4711,0 2.72444,-0.23712 3.76001,-0.71135c1.03558,-0.47424 1.88243,-1.1372 2.54055,-1.98889c0.65812,-0.85169 1.14204,-1.85339 1.45174,-3.00511c0.3097,-1.15172 0.46456,-2.41473 0.46456,-3.78905z" data-paper-data="{&quot;elementType&quot;:&quot;letter&quot;,&quot;baseline&quot;:70.3125,&quot;baselineProportion&quot;:1,&quot;fontSize&quot;:100}"></path></g></g></g></g><g clip-path="url(#clip-1)" data-paper-data="{&quot;elementType&quot;:&quot;emblem&quot;}"><path d="M241.1104,62.19116c-83.456,0 -151.1104,67.6544 -151.1104,151.1104c0,83.4592 67.6544,151.1104 151.1104,151.1104c46.6656,0 88.3936,-21.2064 116.1152,-54.4448c-18.1152,11.7952 -39.5584,18.8928 -62.784,18.8928c-63.8144,0 -115.552,-51.7376 -115.552,-115.5584c0,-63.8208 51.7344,-115.5552 115.552,-115.5552c23.2256,0 44.6688,7.1008 62.784,18.8896c-27.7216,-33.2384 -69.4496,-54.4448 -116.1152,-54.4448z"></path><path d="M330,133.30156l-17.776,53.3344h-62.224l53.3344,35.5552l-26.6688,62.2176l53.3344,-35.5488l53.3344,35.5488l-26.6688,-62.2176l53.3344,-35.5552h-62.224z"></path></g></g></svg>