<svg version="1.1" xmlns="http://www.w3.org/2000/svg" xmlns:xlink="http://www.w3.org/1999/xlink" width="500" height="500"><g data-paper-data="{&quot;description&quot;:&quot;Logo for sang vu van\n====================\n\nThis logo was generated by MarkMaker at http://emblemmatic.org/markmaker/ and may be composed of elements designed by others.\n\nThe font is Merriweather Black Italic designed by Eben Sorkin and released under the OFL license via Google Fonts: https://www.google.com/fonts/specimen/Merriweather. The font includes this copyright statement: Copyright (c) 2010-2016, Sorkin Type Co (www.sorkintype.com) with Reserved Font Name \\'Merriweather\\'\n\nMarkMaker uses semantic data from the Princeton University WordNet database http://wordnet.princeton.edu and font descriptions from Google Fonts https://www.google.com/fonts.&quot;}" fill="#65bdbd" fill-rule="nonzero" stroke="none" stroke-width="1" stroke-linecap="butt" stroke-linejoin="miter" stroke-miterlimit="10" stroke-dasharray="" stroke-dashoffset="0" font-family="none" font-weight="none" font-size="none" text-anchor="none" style="mix-blend-mode: normal"><g data-paper-data="{&quot;elementType&quot;:&quot;logo&quot;}"><g data-paper-data="{&quot;elementType&quot;:&quot;text&quot;}"><g data-paper-data="{&quot;baseline&quot;:56.787109375,&quot;elementType&quot;:&quot;row&quot;}"><g data-paper-data="{&quot;baselineProportion&quot;:0.6918500892325996,&quot;fontSize&quot;:100,&quot;baseline&quot;:56.787109375,&quot;elementType&quot;:&quot;word&quot;}"><path d="M51.66235,400.18315c1.01588,0.57793 2.35499,1.12145 4.01734,1.63058c1.66235,0.50913 3.40551,0.76369 5.22947,0.76369c1.43147,0 2.70132,-0.22016 3.80955,-0.66049c1.10823,-0.44033 1.66235,-1.10081 1.66235,-1.98147c0,-0.77057 -0.50794,-1.48954 -1.52382,-2.15691c-1.01588,-0.66737 -2.63205,-1.46202 -4.84852,-2.38395c-1.98558,-0.81185 -3.59598,-1.76474 -4.8312,-2.85868c-1.23522,-1.09393 -1.85283,-2.46651 -1.85283,-4.11773c0,-1.37602 0.66956,-2.60067 2.00867,-3.67397c1.33911,-1.07329 3.23812,-1.90923 5.69701,-2.50779c2.45889,-0.59857 5.30451,-0.89785 8.53685,-0.89785c1.7547,0 3.52672,0.08256 5.31605,0.24768c1.78933,0.16512 3.01878,0.33712 3.68834,0.51601l-1.48919,4.27254c-0.73882,-0.50913 -1.69698,-0.98041 -2.87448,-1.41386c-1.1775,-0.43345 -2.57433,-0.65017 -4.1905,-0.65017c-1.57,0 -2.88602,0.2064 -3.94808,0.61921c-1.06206,0.41281 -1.59308,1.01137 -1.59308,1.7957c0,0.53665 0.21934,1.03545 0.65801,1.49642c0.43868,0.46097 1.08514,0.91849 1.93941,1.37258c0.85426,0.45409 2.06639,1.02513 3.63639,1.71314c1.54691,0.67425 2.80521,1.30722 3.77492,1.89891c0.9697,0.59169 1.74893,1.29002 2.33768,2.09499c0.58875,0.80497 0.88312,1.75786 0.88312,2.85868c0,1.65122 -0.75614,3.04788 -2.26841,4.18998c-1.51228,1.1421 -3.52672,1.99523 -6.04333,2.55939c-2.51661,0.56417 -5.27565,0.84625 -8.27711,0.84625c-1.43147,0 -2.92643,-0.07224 -4.48488,-0.21672c-1.55845,-0.14448 -2.94374,-0.33024 -4.15587,-0.55729c-1.21213,-0.22704 -2.03753,-0.44377 -2.47621,-0.65017z" data-paper-data="{&quot;elementType&quot;:&quot;letter&quot;,&quot;baseline&quot;:56.787109375,&quot;baselineProportion&quot;:0.9830938292476754,&quot;fontSize&quot;:100}"></path><path d="M106.17353,381.33858c1.29294,0 2.69554,0.086 4.20782,0.258c1.51228,0.172 2.85716,0.38185 4.03466,0.62953l5.2641,-0.88753l-4.46756,19.3193c-0.02309,0.11008 -0.03463,0.26144 -0.03463,0.45409c0,0.74305 0.46176,1.11457 1.38529,1.11457c0.76191,0 1.83551,-0.31648 3.2208,-0.94945l0.9697,1.50674c-0.41559,0.35776 -1.05051,0.76369 -1.90477,1.21778c-0.85426,0.45409 -1.95672,0.86001 -3.30738,1.21778c-1.35066,0.35776 -2.84562,0.53665 -4.48488,0.53665c-1.7547,0 -3.16308,-0.22704 -4.22514,-0.68113c-1.06206,-0.45409 -1.61617,-1.09393 -1.66235,-1.91955c-1.29294,0.77057 -2.81676,1.39666 -4.57146,1.87826c-1.7547,0.48161 -3.74028,0.72241 -5.95675,0.72241c-2.77058,0 -5.06785,-0.38529 -6.89182,-1.15586c-1.82397,-0.77057 -3.16885,-1.80946 -4.03466,-3.11668c-0.86581,-1.30722 -1.29871,-2.78644 -1.29871,-4.43766c0,-2.7658 0.91198,-5.34583 2.73595,-7.7401c1.82397,-2.39427 4.53105,-4.3207 8.12127,-5.77928c3.59021,-1.45858 7.89038,-2.18787 12.90052,-2.18787M107.69735,384.35206c-0.76191,-0.08256 -1.54691,-0.12384 -2.35499,-0.12384c-2.63205,0 -4.76194,0.63297 -6.38965,1.89891c-1.62772,1.26594 -2.79367,2.8518 -3.49786,4.75758c-0.70419,1.90579 -1.05628,3.88381 -1.05628,5.93408c0,1.67874 0.45599,2.9894 1.36797,3.93197c0.91198,0.94257 2.16452,1.41386 3.7576,1.41386c1.47764,0 2.9322,-0.37841 4.36366,-1.13522z" data-paper-data="{&quot;elementType&quot;:&quot;letter&quot;,&quot;baseline&quot;:56.787109375,&quot;baselineProportion&quot;:0.9830938292476754,&quot;fontSize&quot;:100}"></path><path d="M126.12171,384.24886l0.55412,-1.83698l12.95247,-1.07329l1.80088,0.49537l-0.55412,4.33446c1.59308,-1.49986 3.49209,-2.6798 5.69701,-3.53981c2.20492,-0.86001 4.63495,-1.29002 7.29009,-1.29002c2.86293,0 5.10826,0.49193 6.73597,1.47578c1.62772,0.98385 2.44157,2.56971 2.44157,4.75758c0,0.92193 -0.56566,3.37124 -1.69698,7.34794l-0.38095,1.36226c-0.36941,1.2109 -0.6407,2.18099 -0.81386,2.91028c-0.17316,0.72929 -0.25974,1.36226 -0.25974,1.89891c0,0.45409 0.12121,0.75681 0.36364,0.90817c0.24243,0.15136 0.57143,0.22704 0.98702,0.22704c0.3925,0 0.80231,-0.06536 1.22945,-0.19608c0.42713,-0.13072 1.05628,-0.38185 1.88746,-0.75337l0.9697,1.50674c-0.83117,0.64673 -2.1068,1.30722 -3.82686,1.98147c-1.72007,0.67425 -3.90767,1.01137 -6.56281,1.01137c-2.79367,0 -4.66381,-0.33024 -5.61043,-0.99073c-0.94662,-0.66049 -1.41992,-1.50674 -1.41992,-2.53875c0,-0.45409 0.10967,-1.06985 0.32901,-1.8473c0.21934,-0.77745 0.55989,-1.90923 1.02165,-3.39532l0.24243,-0.80497c0.48485,-1.6237 0.86581,-3.04444 1.14286,-4.26222c0.27706,-1.21778 0.41559,-2.34267 0.41559,-3.37468c0,-0.81185 -0.09235,-1.44482 -0.27706,-1.89891c-0.18471,-0.45409 -0.47331,-0.77401 -0.86581,-0.95977c-0.3925,-0.18576 -0.92353,-0.27864 -1.59308,-0.27864c-1.33911,0 -2.79367,0.48849 -4.36366,1.46546c-1.57,0.97697 -2.90911,2.16723 -4.01734,3.57077l-3.42859,14.88164h-11.22085l4.53683,-19.85594z" data-paper-data="{&quot;elementType&quot;:&quot;letter&quot;,&quot;baseline&quot;:56.787109375,&quot;baselineProportion&quot;:0.9822635135135135,&quot;fontSize&quot;:100}"></path><path d="M193.41219,381.33858c1.33911,0 2.80521,0.09632 4.3983,0.28896c1.59308,0.19264 2.98992,0.41281 4.1905,0.66049l5.61043,-0.94945l-5.78359,25.59394c-0.69265,3.3162 -3.05918,5.66232 -7.09961,7.03833c-4.04043,1.37602 -8.81968,2.06403 -14.33776,2.06403c-1.61617,0 -3.38242,-0.1032 -5.29874,-0.3096c-1.91632,-0.2064 -3.24389,-0.41281 -3.98271,-0.61921l1.76625,-4.43766c0.30015,0.16512 0.99279,0.41969 2.07794,0.76369c1.08514,0.344 2.32036,0.65017 3.70565,0.91849c1.38529,0.26832 2.70132,0.40249 3.94808,0.40249c1.66235,0 3.00146,-0.1204 4.01734,-0.3612c1.01588,-0.2408 1.81819,-0.67769 2.40694,-1.31066c0.58875,-0.63297 0.99856,-1.54802 1.22945,-2.74516l0.86581,-4.49958c-1.20059,0.57793 -2.57433,1.04233 -4.12124,1.39322c-1.54691,0.35088 -3.25543,0.52633 -5.12557,0.52633c-2.77058,0 -5.06785,-0.38529 -6.89182,-1.15586c-1.82397,-0.77057 -3.16885,-1.80946 -4.03466,-3.11668c-0.86581,-1.30722 -1.29871,-2.78644 -1.29871,-4.43766c0,-2.7658 0.91198,-5.34583 2.73595,-7.7401c1.82397,-2.39427 4.53105,-4.3207 8.12127,-5.77928c3.59021,-1.45858 7.89038,-2.18787 12.90052,-2.18787M195.76719,384.45526c-0.90044,-0.15136 -1.96249,-0.22704 -3.18617,-0.22704c-2.63205,0 -4.76194,0.63297 -6.38965,1.89891c-1.62772,1.26594 -2.79367,2.8518 -3.49786,4.75758c-0.70419,1.90579 -1.05628,3.88381 -1.05628,5.93408c0,1.67874 0.45599,2.9894 1.36797,3.93197c0.91198,0.94257 2.16452,1.41386 3.7576,1.41386c0.90044,0 1.77779,-0.1376 2.63205,-0.41281c0.85426,-0.2752 1.6508,-0.63985 2.38963,-1.09393z" data-paper-data="{&quot;elementType&quot;:&quot;letter&quot;,&quot;baseline&quot;:56.787109375,&quot;baselineProportion&quot;:0.6918500892325996,&quot;fontSize&quot;:100}"></path></g><g data-paper-data="{&quot;baselineProportion&quot;:0.9822635135135135,&quot;fontSize&quot;:100,&quot;baseline&quot;:56.787109375,&quot;elementType&quot;:&quot;word&quot;}"><path d="M231.8527,386.20968c-0.13853,-0.44033 -0.33478,-0.74305 -0.58875,-0.90817c-0.25397,-0.16512 -0.60029,-0.24768 -1.03897,-0.24768c-0.30015,0 -0.54257,0.02064 -0.72728,0.06192c-0.18471,0.04128 -0.46176,0.12384 -0.83117,0.24768l-1.00434,-1.60994c0.32323,-0.23392 0.91775,-0.54009 1.78356,-0.91849c0.86581,-0.37841 1.93941,-0.72241 3.2208,-1.03201c1.28139,-0.3096 2.63782,-0.46441 4.06929,-0.46441c2.03176,0 3.57289,0.23736 4.62341,0.71209c1.05051,0.47473 1.70275,1.17994 1.95672,2.11563l3.2208,11.7856l1.10823,4.4583l1.73161,-1.63058c1.96249,-1.84386 3.37665,-3.54325 4.24245,-5.09815c0.86581,-1.5549 1.29871,-3.18548 1.29871,-4.89174c0,-0.31648 -0.04618,-0.63985 -0.13853,-0.97009c-0.09235,-0.33024 -0.23088,-0.74993 -0.41559,-1.25906c-0.3925,-1.01825 -0.58875,-1.80946 -0.58875,-2.37363c0,-0.83937 0.47908,-1.52394 1.43724,-2.05371c0.95816,-0.52977 2.30305,-0.79465 4.03466,-0.79465c2.1472,0 3.74028,0.44377 4.77925,1.3313c1.03897,0.88753 1.55845,1.96427 1.55845,3.2302c0,1.38978 -0.63492,2.99628 -1.90477,4.8195c-1.26985,1.82322 -3.06496,3.74965 -5.38532,5.77928c-2.32036,2.02963 -5.05054,4.04205 -8.19053,6.03728l-4.60609,2.99284l-6.64939,0.24768l-2.73595,-7.76074z" data-paper-data="{&quot;elementType&quot;:&quot;letter&quot;,&quot;baseline&quot;:56.787109375,&quot;baselineProportion&quot;:0.9822635135135135,&quot;fontSize&quot;:100}"></path><path d="M272.51097,385.48727l-4.36366,-1.65122l0.55412,-1.83698l13.9568,-0.66049l1.80088,0.49537l-2.38963,11.35215c-0.06926,0.35776 -0.15007,0.72241 -0.24243,1.09393c-0.09235,0.37152 -0.17316,0.73617 -0.24243,1.09393c-0.53103,2.18787 -0.79654,3.57077 -0.79654,4.14869c0,0.97697 0.26551,1.68218 0.79654,2.11563c0.53103,0.43345 1.3622,0.65017 2.49352,0.65017c1.26985,0 2.48198,-0.1892 3.63639,-0.56761c1.15441,-0.37841 2.18183,-0.87033 3.08227,-1.47578l4.2944,-18.74137h11.29012l-4.43293,19.15417c-0.04618,0.22016 -0.06926,0.37152 -0.06926,0.45409c0,0.37152 0.13276,0.65017 0.39827,0.83593c0.26551,0.18576 0.61761,0.27864 1.05628,0.27864c0.3925,0 0.79077,-0.06192 1.19481,-0.18576c0.40404,-0.12384 1.06783,-0.37841 1.99136,-0.76369l0.9697,1.50674c-0.32323,0.31648 -0.91775,0.70865 -1.78356,1.1765c-0.86581,0.46785 -1.98558,0.88409 -3.35933,1.24874c-1.37375,0.36464 -2.89179,0.54697 -4.55414,0.54697c-2.12411,0 -3.72874,-0.24424 -4.81388,-0.73273c-1.08514,-0.48849 -1.62772,-1.15242 -1.62772,-1.99179c0,-0.2064 0.03463,-0.41969 0.1039,-0.63985l-0.13853,-0.06192c-1.47764,1.00449 -3.16308,1.82666 -5.05631,2.46651c-1.89323,0.63985 -4.21359,0.95977 -6.96108,0.95977c-1.57,0 -3.12845,-0.17544 -4.67536,-0.52633c-1.54691,-0.35088 -2.83985,-0.93225 -3.87881,-1.7441c-1.03897,-0.81185 -1.55845,-1.85074 -1.55845,-3.11668c0,-0.71553 0.09235,-1.5377 0.27706,-2.46651c0.18471,-0.92881 0.47331,-2.14315 0.86581,-3.64301l0.31169,-1.23842z" data-paper-data="{&quot;elementType&quot;:&quot;letter&quot;,&quot;baseline&quot;:56.787109375,&quot;baselineProportion&quot;:0.9830938292476754,&quot;fontSize&quot;:100}"></path></g><g data-paper-data="{&quot;baselineProportion&quot;:0.9822635135135135,&quot;fontSize&quot;:100,&quot;baseline&quot;:56.787109375,&quot;elementType&quot;:&quot;word&quot;}"><path d="M331.73083,386.20968c-0.13853,-0.44033 -0.33478,-0.74305 -0.58875,-0.90817c-0.25397,-0.16512 -0.60029,-0.24768 -1.03897,-0.24768c-0.30015,0 -0.54257,0.02064 -0.72728,0.06192c-0.18471,0.04128 -0.46176,0.12384 -0.83117,0.24768l-1.00434,-1.60994c0.32323,-0.23392 0.91775,-0.54009 1.78356,-0.91849c0.86581,-0.37841 1.93941,-0.72241 3.2208,-1.03201c1.28139,-0.3096 2.63782,-0.46441 4.06929,-0.46441c2.03176,0 3.57289,0.23736 4.62341,0.71209c1.05051,0.47473 1.70275,1.17994 1.95672,2.11563l3.2208,11.7856l1.10823,4.4583l1.73161,-1.63058c1.96249,-1.84386 3.37665,-3.54325 4.24245,-5.09815c0.86581,-1.5549 1.29871,-3.18548 1.29871,-4.89174c0,-0.31648 -0.04618,-0.63985 -0.13853,-0.97009c-0.09235,-0.33024 -0.23088,-0.74993 -0.41559,-1.25906c-0.3925,-1.01825 -0.58875,-1.80946 -0.58875,-2.37363c0,-0.83937 0.47908,-1.52394 1.43724,-2.05371c0.95816,-0.52977 2.30305,-0.79465 4.03466,-0.79465c2.1472,0 3.74028,0.44377 4.77925,1.3313c1.03897,0.88753 1.55845,1.96427 1.55845,3.2302c0,1.38978 -0.63492,2.99628 -1.90477,4.8195c-1.26985,1.82322 -3.06496,3.74965 -5.38532,5.77928c-2.32036,2.02963 -5.05054,4.04205 -8.19053,6.03728l-4.60609,2.99284l-6.64939,0.24768l-2.73595,-7.76074z" data-paper-data="{&quot;elementType&quot;:&quot;letter&quot;,&quot;baseline&quot;:56.787109375,&quot;baselineProportion&quot;:0.9822635135135135,&quot;fontSize&quot;:100}"></path><path d="M390.8481,381.33858c1.29294,0 2.69554,0.086 4.20782,0.258c1.51228,0.172 2.85716,0.38185 4.03466,0.62953l5.2641,-0.88753l-4.46756,19.3193c-0.02309,0.11008 -0.03463,0.26144 -0.03463,0.45409c0,0.74305 0.46176,1.11457 1.38529,1.11457c0.76191,0 1.83551,-0.31648 3.2208,-0.94945l0.9697,1.50674c-0.41559,0.35776 -1.05051,0.76369 -1.90477,1.21778c-0.85426,0.45409 -1.95672,0.86001 -3.30738,1.21778c-1.35066,0.35776 -2.84562,0.53665 -4.48488,0.53665c-1.7547,0 -3.16308,-0.22704 -4.22514,-0.68113c-1.06206,-0.45409 -1.61617,-1.09393 -1.66235,-1.91955c-1.29294,0.77057 -2.81676,1.39666 -4.57146,1.87826c-1.7547,0.48161 -3.74028,0.72241 -5.95675,0.72241c-2.77058,0 -5.06785,-0.38529 -6.89182,-1.15586c-1.82397,-0.77057 -3.16885,-1.80946 -4.03466,-3.11668c-0.86581,-1.30722 -1.29871,-2.78644 -1.29871,-4.43766c0,-2.7658 0.91198,-5.34583 2.73595,-7.7401c1.82397,-2.39427 4.53105,-4.3207 8.12127,-5.77928c3.59021,-1.45858 7.89038,-2.18787 12.90052,-2.18787M392.37192,384.35206c-0.76191,-0.08256 -1.54691,-0.12384 -2.35499,-0.12384c-2.63205,0 -4.76194,0.63297 -6.38965,1.89891c-1.62772,1.26594 -2.79367,2.8518 -3.49786,4.75758c-0.70419,1.90579 -1.05628,3.88381 -1.05628,5.93408c0,1.67874 0.45599,2.9894 1.36797,3.93197c0.91198,0.94257 2.16452,1.41386 3.7576,1.41386c1.47764,0 2.9322,-0.37841 4.36366,-1.13522z" data-paper-data="{&quot;elementType&quot;:&quot;letter&quot;,&quot;baseline&quot;:56.787109375,&quot;baselineProportion&quot;:0.9830938292476754,&quot;fontSize&quot;:100}"></path><path d="M410.79628,384.24886l0.55412,-1.83698l12.95247,-1.07329l1.80088,0.49537l-0.55412,4.33446c1.59308,-1.49986 3.49209,-2.6798 5.69701,-3.53981c2.20492,-0.86001 4.63495,-1.29002 7.29009,-1.29002c2.86293,0 5.10826,0.49193 6.73597,1.47578c1.62772,0.98385 2.44157,2.56971 2.44157,4.75758c0,0.92193 -0.56566,3.37124 -1.69698,7.34794l-0.38095,1.36226c-0.36941,1.2109 -0.6407,2.18099 -0.81386,2.91028c-0.17316,0.72929 -0.25974,1.36226 -0.25974,1.89891c0,0.45409 0.12121,0.75681 0.36364,0.90817c0.24243,0.15136 0.57143,0.22704 0.98702,0.22704c0.3925,0 0.80231,-0.06536 1.22945,-0.19608c0.42713,-0.13072 1.05628,-0.38185 1.88746,-0.75337l0.9697,1.50674c-0.83117,0.64673 -2.1068,1.30722 -3.82686,1.98147c-1.72007,0.67425 -3.90767,1.01137 -6.56281,1.01137c-2.79367,0 -4.66381,-0.33024 -5.61043,-0.99073c-0.94662,-0.66049 -1.41992,-1.50674 -1.41992,-2.53875c0,-0.45409 0.10967,-1.06985 0.32901,-1.8473c0.21934,-0.77745 0.55989,-1.90923 1.02165,-3.39532l0.24243,-0.80497c0.48485,-1.6237 0.86581,-3.04444 1.14286,-4.26222c0.27706,-1.21778 0.41559,-2.34267 0.41559,-3.37468c0,-0.81185 -0.09235,-1.44482 -0.27706,-1.89891c-0.18471,-0.45409 -0.47331,-0.77401 -0.86581,-0.95977c-0.3925,-0.18576 -0.92353,-0.27864 -1.59308,-0.27864c-1.33911,0 -2.79367,0.48849 -4.36366,1.46546c-1.57,0.97697 -2.90911,2.16723 -4.01734,3.57077l-3.42859,14.88164h-11.22085l4.53683,-19.85594z" data-paper-data="{&quot;elementType&quot;:&quot;letter&quot;,&quot;baseline&quot;:56.787109375,&quot;baselineProportion&quot;:0.9822635135135135,&quot;fontSize&quot;:100}"></path></g></g></g></g><g data-paper-data="{&quot;elementType&quot;:&quot;emblem&quot;}"><g data-paper-data="{&quot;baselineProportion&quot;:0.9830938292476754,&quot;fontSize&quot;:100,&quot;baseline&quot;:56.787109375,&quot;elementType&quot;:&quot;word&quot;}"><path d="M108.61818,295.02292c11.37778,6.47275 26.37576,12.56021 44.99394,18.26239c18.61818,5.70218 38.14141,8.55327 58.5697,8.55327c16.03232,0 30.25455,-2.46581 42.66667,-7.39743c12.41212,-4.93162 18.61818,-12.32904 18.61818,-22.19228c0,-8.63033 -5.68889,-16.68274 -17.06667,-24.15722c-11.37778,-7.47448 -29.47879,-16.37451 -54.30303,-26.70008c-22.23838,-9.09267 -40.27475,-19.765 -54.10909,-32.01698c-13.83434,-12.25199 -20.75152,-27.62476 -20.75152,-46.11833c0,-15.4113 7.49899,-29.12736 22.49697,-41.14818c14.99798,-12.02082 36.26667,-21.38318 63.80606,-28.0871c27.53939,-6.70392 59.4101,-10.05588 95.61212,-10.05588c19.65253,0 39.49899,0.92468 59.53939,2.77403c20.0404,1.84936 33.8101,3.77577 41.30909,5.77924l-16.67879,47.8521c-8.27475,-5.70218 -19.00606,-10.98055 -32.19394,-15.83511c-13.18788,-4.85456 -28.83232,-7.28184 -46.93333,-7.28184c-17.58384,0 -32.32323,2.3117 -44.21818,6.93509c-11.89495,4.62339 -17.84242,11.32731 -17.84242,20.11175c0,6.01041 2.45657,11.59701 7.3697,16.75979c4.91313,5.16279 12.15354,10.28705 21.72121,15.37278c9.56768,5.08573 23.14343,11.48142 40.72727,19.18707c17.32525,7.55154 31.41818,14.64074 42.27879,21.2676c10.86061,6.62686 19.58788,14.4481 26.18182,23.46371c6.59394,9.01561 9.89091,19.68794 9.89091,32.01698c0,18.49356 -8.46869,34.13604 -25.40606,46.92742c-16.93737,12.79138 -39.49899,22.34639 -67.68485,28.66502c-28.18586,6.31863 -59.08687,9.47795 -92.70303,9.47795c-16.03232,0 -32.77576,-0.80909 -50.2303,-2.42728c-17.45455,-1.61819 -32.9697,-3.69871 -46.54545,-6.24158c-13.57576,-2.54287 -22.8202,-4.97015 -27.73333,-7.28184z" data-paper-data="{&quot;elementType&quot;:&quot;letter&quot;,&quot;baseline&quot;:56.787109375,&quot;baselineProportion&quot;:0.9830938292476754,&quot;fontSize&quot;:100}"></path></g></g></g></svg>